<svg width="223" height="223" viewBox="0 0 223 223" fill="none" xmlns="http://www.w3.org/2000/svg">
<path d="M162.653 166.5C153.153 184 132.653 195 111.153 195C93.1729 195 46.1533 182 53.6532 140" stroke="#9974B8" stroke-width="18.5556" stroke-linecap="round" stroke-linejoin="round"/>
<path d="M114.101 114.5C102.153 107 87.1012 90 87.1012 53.9999C77.2836 60.4999 43.6533 77 53.6532 138.5" stroke="#9974B8" stroke-width="18.5556" stroke-linecap="round" stroke-linejoin="round"/>
<path d="M110.654 16C62.0475 16 14.1533 57.5 22.6533 125" stroke="#9974B8" stroke-width="18.56" stroke-linecap="round"/>
<path d="M110.653 16C162.653 16 220.153 54.5 197.153 137C202.667 154.495 210.553 190.2 176.153 207" stroke="#9974B8" stroke-width="18.56" stroke-linecap="round"/>
<path d="M133.653 68C133.82 80 136.153 105.5 167.153 116.5" stroke="#9974B8" stroke-width="18.56" stroke-linecap="round"/>
<circle cx="82" cy="132" r="10" fill="#9974B8"/>
<ellipse cx="139.5" cy="132" rx="10.5" ry="10" fill="#9974B8"/>
<path d="M22.1533 156C19.8199 165 18.6533 195 43.1533 207" stroke="#9974B8" stroke-width="18.56" stroke-linecap="round"/>
</svg>
