<svg width="223" height="223" viewBox="0 0 223 223" fill="none" xmlns="http://www.w3.org/2000/svg">
<rect x="48.238" y="79.7858" width="31.5475" height="31.5475" fill="black"/>
<rect x="48.238" y="111.333" width="31.5475" height="31.5475" fill="black"/>
<rect x="48.238" y="142.881" width="31.5475" height="31.5475" fill="black"/>
<rect width="31.5475" height="31.5475" transform="matrix(-1 0 0 1 174.428 48.2383)" fill="black"/>
<rect width="31.5475" height="31.5475" transform="matrix(-1 0 0 1 111.333 48.2383)" fill="black"/>
<rect width="31.5475" height="31.5475" transform="matrix(-1 0 0 1 205.976 79.7858)" fill="black"/>
<rect width="31.5475" height="31.5475" transform="matrix(-1 0 0 1 205.976 111.333)" fill="black"/>
<rect width="31.5475" height="31.5475" transform="matrix(-1 0 0 1 205.976 142.881)" fill="black"/>
<rect x="111.4" y="111.333" width="31.5475" height="31.5475" fill="black"/>
<rect x="111.4" y="142.881" width="31.5475" height="31.5475" fill="black"/>
<rect x="16.6907" y="48.2383" width="31.5475" height="31.5475" fill="black"/>
<rect x="111.333" y="79.7858" width="31.5475" height="31.5475" fill="black"/>
</svg>
